<?xml version="1.0" encoding="utf-8" ?>
<svg xmlns="http://www.w3.org/2000/svg" xmlns:xlink="http://www.w3.org/1999/xlink" width="100" height="100">
	<path transform="scale(0.15625 0.15625)" d="M122.937 219.206C124.146 214.995 125.457 211.237 127.575 207.372C134.737 194.301 147.773 183.703 160.641 176.589C171.887 170.371 184.772 165.1 197.612 163.501C206.933 162.341 216.67 162.917 226.07 162.922L276.794 163.044L388.598 164.082L431.717 164.535C444.839 165.31 458.569 166.383 471.242 170.035C480.396 172.672 489.058 176.184 497.379 180.82C506.369 185.83 514.651 191.992 519.809 201.123C520.059 201.565 520.158 202.029 520.331 202.5L520.637 203.154C523.577 209.346 523.947 218.47 521.712 224.911C521.308 226.073 520.762 227.097 520.156 228.16L519.949 228.532C516.996 233.679 509.366 236.397 504.009 237.8C502.307 238.246 497.717 239.601 496.131 239.161C495.835 242.301 496.169 245.6 496.29 248.752L517.176 484.104C517.28 485.44 517.801 486.672 518.097 487.969C519.928 496.003 522.413 504.811 516.708 511.909C514.545 514.6 511.004 516.56 507.969 518.094C503.244 520.482 498.035 522.366 493.082 524.218L479.811 529.507L454.844 539.442C447.16 542.528 438.973 546.447 430.645 547.2C422.91 547.899 414.974 546.989 407.272 546.26L380.293 543.699L338.281 540.95L296.184 537.409L275.253 536.854L262.124 536.045L243.281 535.862C238.561 535.702 233.915 534.946 229.219 534.674L209.612 534.214L197.94 533.469C185.799 533.122 173.412 533.993 161.316 532.961C155.26 532.445 147.712 531.819 142.88 527.698C140.53 525.693 138.896 523.389 137.987 520.423C137.342 516.552 137.442 511.874 138.096 508.005C137.853 505.954 138.475 503.201 138.64 501.098L140.367 480.934C140.23 480.143 140.426 479.01 140.482 478.197C140.636 475.953 140.654 473.394 141.255 471.236C141.098 466.791 141.62 461.587 142.167 457.148L146.986 370.71L147.789 350.796L150.277 242.18C145.756 241.721 141.122 242.065 136.583 242.116C133.233 242.153 129.074 242.203 126.252 240.126C123.682 238.233 122.748 235.245 122.325 232.23C121.45 227.985 122.402 223.449 122.937 219.206ZM422.158 522.656C421.569 518.765 421.939 514.288 421.909 510.339L421.738 485.58L421.555 418.172L421.246 378.139L420.139 365.235C419.305 357.071 418.198 348.921 417.873 340.713L417.788 316.708C417.796 310.141 417.466 303.329 417.963 296.792C418.574 288.737 420.205 280.425 421.43 272.423L423.174 258.441C424.115 251.272 424.989 243.964 424.95 236.725C424.907 228.679 423.905 221.022 422.581 213.118C421.936 209.269 420.14 204.95 418.384 201.479C416.479 204.996 415.056 208.727 413.475 212.393L406.774 227.319C405.13 230.866 403.623 234.76 401.079 237.778C399.641 239.485 397.995 240.527 395.938 241.334L395.437 241.535C392.285 242.769 388.388 242.81 385.01 242.944C376.124 243.296 367.094 242.733 358.194 242.608L313.791 242.282L221.021 242.047L184.476 241.891L160.858 241.989C161.308 247.019 162.872 251.997 163.162 256.974L163.394 277.03L163.041 298.642C162.909 301.306 162.331 303.911 162.201 306.562L160.406 349.062L159.587 359.652L157.969 403.692L156.306 424.638C156.029 430.068 156.451 435.532 156.036 440.957C155.634 446.203 154.181 451.342 153.726 456.594L152.971 475.808C152.845 477.937 152.377 480.037 152.178 482.164L151.464 492.763C151.058 497.576 149.666 502.369 149.721 507.193C149.763 510.901 149.984 515.563 153.074 518.16C154.039 518.971 155.48 519.351 156.719 519.417C164.576 519.833 172.586 519.221 180.469 519.387C186.231 519.509 191.954 520.663 197.728 520.868L231.032 521.35C235.625 521.546 240.146 522.516 244.724 522.711L294.375 524.145C298.001 524.319 301.542 524.951 305.145 525.205L317.358 525.726L339.152 527.408L381.299 530.533L400 532.516L422.573 534.334L422.477 526.562C422.418 525.576 421.929 523.547 422.158 522.656ZM430.477 301.777L429.577 324.288L431.169 338.906C431.511 344.451 431.259 350.067 431.727 355.589C432.301 362.376 433.03 368.933 433.134 375.763C433.157 377.247 433.437 379.169 433.164 380.595C433.8 385.963 433.432 391.71 433.491 397.125L433.782 429.466C433.805 431.092 434.19 433.687 433.795 435.199C434.259 438.402 434.023 441.978 434.036 445.222L433.339 476.34C433.339 483.561 433.73 521.878 436.875 525.022C439.332 525.775 443.508 525.384 446.093 525.146C451.557 524.641 456.894 522.158 462.031 520.337L474.979 515.567C479.431 513.745 483.819 511.692 488.37 510.127C492.296 508.777 496.669 508.645 500.551 507.148C502.171 506.524 503.994 505.419 505.097 504.061C505.52 503.541 506.473 502.509 506.688 501.91C506.904 501.306 506.761 500.051 506.74 499.401C506.673 497.274 506.686 495.041 506.388 492.936L504.19 481.35L501.328 461.406L497.388 433.77L496.235 425.977C495.567 423.247 495.327 420.625 495.356 417.819C494.647 414.074 494.606 410.01 494.326 406.193L492.187 378.798C491.343 375.436 491.489 371.543 491.184 368.087C490.519 364.16 490.398 360.206 490.006 356.25L487.161 308.844C486.798 306.812 486.821 304.564 486.717 302.498L486.194 286.887L485.257 268.146C485.138 265.672 484.593 263.272 484.524 260.785L484.602 249.333C484.651 247.207 485.012 244.706 484.454 242.656C482.64 241.981 479.258 243.006 477.37 243.308C474.349 243.793 471.03 244.324 467.969 243.983C465.251 243.679 462.726 243.01 460.332 241.669C457.138 239.879 454.396 236.897 452.064 234.125C447.066 228.182 442.865 221.185 438.969 214.47C436.889 210.885 435.138 207.393 432.692 203.997C432.84 206.032 432.9 208.199 433.315 210.196L435.274 217.807C436.333 222.634 437.141 227.7 437.301 232.637C437.493 238.54 437.573 244.592 437.063 250.48C436.399 258.162 434.908 265.682 433.699 273.281L430.477 301.777ZM203.341 176.368C180.475 179.072 158.185 189.129 143.687 207.459C139.394 212.887 136.722 218.649 134.182 225.047C142.757 226.756 152.593 225.906 161.307 225.858L197.621 225.909L218.223 226.749L347.734 226.919L392.847 226.786C394.617 222.013 396.266 217.104 398.355 212.462C401.958 204.454 406.591 196.962 410.876 189.315C412.946 185.619 414.591 181.754 416.887 178.164L379.502 177.538L245.838 176.519L215.3 176.181L207.059 176.164C205.915 176.187 204.44 176.084 203.341 176.368ZM431.391 177.344C432.697 181.265 435.655 185.135 437.869 188.623L450.699 208.881C453.287 213.233 455.76 218 457.864 222.599C458.653 224.321 459.084 226.14 459.924 227.849L478.637 225.471C486.8 224.379 495.891 223.298 503.51 220.111L504.612 219.686L512.507 216.464C508.573 204.173 500.006 196.819 488.825 191.072C471.183 182.006 451.016 178.381 431.391 177.344ZM421.246 378.139L421.555 418.172L421.738 485.58L421.909 510.339C421.939 514.288 421.569 518.765 422.158 522.656L422.295 521.68C422.575 518.381 422.338 514.872 422.335 511.55L422.327 491.248L422.611 405.281L422.351 381.588C422.292 380.263 422.506 376.879 421.719 375.948L421.246 378.139ZM433.164 380.595L432.963 384.531L432.656 384.222C432.281 385.194 432.418 386.322 432.416 387.35L432.41 394.063L432.573 423.655C432.732 424.826 432.935 425.759 433.302 426.875C433.573 427.701 433.491 428.625 433.782 429.466L433.491 397.125C433.432 391.71 433.8 385.963 433.164 380.595ZM432.573 423.655L432.812 431.249C432.877 433.425 432.419 435.697 432.359 437.892L432.358 451.795C432.366 453.131 432.061 455.9 432.656 457.028C433.114 456.339 433.048 455.577 433.148 454.765C433.697 450.296 433.245 445.237 433.253 440.703L433.591 440.938L433.597 441.094C433.606 439.22 433.418 437.018 433.795 435.199C434.19 433.687 433.805 431.092 433.782 429.466C433.491 428.625 433.573 427.701 433.302 426.875C432.935 425.759 432.732 424.826 432.573 423.655ZM429.577 324.288L430.477 301.777L429.924 301.562L429.844 300.625C429.147 301.348 428.589 315.75 428.594 317.668L428.761 317.887C429.276 318.822 429.014 323.958 429.577 324.288ZM486.194 286.887L486.717 302.498C486.821 304.564 486.798 306.812 487.161 308.844C488.017 300.986 487.505 293.024 487.085 285.156L486.719 284.91L486.194 286.887ZM147.789 350.796L146.986 370.71C147.273 370.051 147.443 369.33 147.648 368.64C147.905 369.055 147.787 369.319 147.758 369.794L148.089 369.844L148.61 353.186C148.02 352.515 147.969 351.65 147.789 350.796ZM122.325 232.23L123.232 231.875C123.12 229.452 123.088 226.949 123.278 224.531C123.365 223.427 123.997 221.991 123.545 220.927C123.302 220.356 123.12 219.801 122.937 219.206C122.402 223.449 121.45 227.985 122.325 232.23ZM496.29 248.752C496.169 245.6 495.835 242.301 496.131 239.161L495.413 238.873C494.935 239.755 494.851 240.262 494.807 241.259C494.778 241.928 494.821 241.342 494.682 242.061C494.474 243.138 494.932 244.604 495.061 245.712L495.517 251.987L495.754 248.897L496.29 248.752ZM142.167 457.148C141.62 461.587 141.098 466.791 141.255 471.236L141.696 472.436L142.01 472.199C142.273 469.045 143.019 465.384 142.468 462.245C142.181 460.614 142.306 458.817 142.167 457.148ZM491.184 368.087C491.489 371.543 491.343 375.436 492.187 378.798C492.235 377.453 492.579 376.229 492.648 374.927C492.784 372.336 492.385 369.612 492.138 367.031L491.719 366.817L491.184 368.087ZM140.367 480.934C141.17 481.779 140.749 482.549 141.098 483.617C141.372 480.765 142.336 476.642 141.523 473.908C141.266 473.041 141.29 472.136 141.255 471.236C140.654 473.394 140.636 475.953 140.482 478.197C140.426 479.01 140.23 480.143 140.367 480.934ZM495.356 417.819C495.327 420.625 495.567 423.247 496.235 425.977C496.29 425.039 496.189 424.311 496.701 423.511C496.657 421.017 497 416.436 495.938 414.219C495.933 415.583 496.176 416.683 495.356 417.819ZM137.987 520.423L138.233 519.091C138.808 517.358 138.879 514.602 138.401 512.811C138.014 511.36 138.203 509.524 138.096 508.005C137.442 511.874 137.342 516.552 137.987 520.423Z"/>
	<path transform="scale(0.15625 0.15625)" d="M137.987 520.423C137.342 516.552 137.442 511.874 138.096 508.005C138.203 509.524 138.014 511.36 138.401 512.811C138.879 514.602 138.808 517.358 138.233 519.091L137.987 520.423Z"/>
	<path transform="scale(0.15625 0.15625)" d="M495.356 417.819C496.176 416.683 495.933 415.583 495.938 414.219C497 416.436 496.657 421.017 496.701 423.511C496.189 424.311 496.29 425.039 496.235 425.977C495.567 423.247 495.327 420.625 495.356 417.819Z"/>
	<path transform="scale(0.15625 0.15625)" d="M140.367 480.934C140.23 480.143 140.426 479.01 140.482 478.197C140.636 475.953 140.654 473.394 141.255 471.236C141.29 472.136 141.266 473.041 141.523 473.908C142.336 476.642 141.372 480.765 141.098 483.617C140.749 482.549 141.17 481.779 140.367 480.934Z"/>
	<path transform="scale(0.15625 0.15625)" d="M491.184 368.087L491.719 366.817L492.138 367.031C492.385 369.612 492.784 372.336 492.648 374.927C492.579 376.229 492.235 377.453 492.187 378.798C491.343 375.436 491.489 371.543 491.184 368.087Z"/>
	<path transform="scale(0.15625 0.15625)" d="M142.167 457.148C142.306 458.817 142.181 460.614 142.468 462.245C143.019 465.384 142.273 469.045 142.01 472.199L141.696 472.436L141.255 471.236C141.098 466.791 141.62 461.587 142.167 457.148Z"/>
	<path transform="scale(0.15625 0.15625)" d="M496.29 248.752L495.754 248.897L495.517 251.987L495.061 245.712C494.932 244.604 494.474 243.138 494.682 242.061C494.821 241.342 494.778 241.928 494.807 241.259C494.851 240.262 494.935 239.755 495.413 238.873L496.131 239.161C495.835 242.301 496.169 245.6 496.29 248.752Z"/>
	<path transform="scale(0.15625 0.15625)" d="M122.325 232.23C121.45 227.985 122.402 223.449 122.937 219.206C123.12 219.801 123.302 220.356 123.545 220.927C123.997 221.991 123.365 223.427 123.278 224.531C123.088 226.949 123.12 229.452 123.232 231.875L122.325 232.23Z"/>
	<path transform="scale(0.15625 0.15625)" d="M147.789 350.796C147.969 351.65 148.02 352.515 148.61 353.186L148.089 369.844L147.758 369.794C147.787 369.319 147.905 369.055 147.648 368.64C147.443 369.33 147.273 370.051 146.986 370.71L147.789 350.796Z"/>
	<path transform="scale(0.15625 0.15625)" d="M486.194 286.887L486.719 284.91L487.085 285.156C487.505 293.024 488.017 300.986 487.161 308.844C486.798 306.812 486.821 304.564 486.717 302.498L486.194 286.887Z"/>
	<path transform="scale(0.15625 0.15625)" d="M429.577 324.288C429.014 323.958 429.276 318.822 428.761 317.887L428.594 317.668C428.589 315.75 429.147 301.348 429.844 300.625L429.924 301.562L430.477 301.777L429.577 324.288Z"/>
	<defs>
		<linearGradient id="gradient_0" gradientUnits="userSpaceOnUse" x1="432.15085" y1="432.53156" x2="433.45352" y2="432.45023">
			<stop offset="0" stop-color="#08090A" stop-opacity="0.94901961"/>
			<stop offset="1" stop-color="black"/>
		</linearGradient>
	</defs>
	<path fill="url(#gradient_0)" transform="scale(0.15625 0.15625)" d="M432.573 423.655C432.732 424.826 432.935 425.759 433.302 426.875C433.573 427.701 433.491 428.625 433.782 429.466C433.805 431.092 434.19 433.687 433.795 435.199C433.418 437.018 433.606 439.22 433.597 441.094L433.591 440.938L433.253 440.703C433.245 445.237 433.697 450.296 433.148 454.765C433.048 455.577 433.114 456.339 432.656 457.028C432.061 455.9 432.366 453.131 432.358 451.795L432.359 437.892C432.419 435.697 432.877 433.425 432.812 431.249L432.573 423.655Z"/>
	<path transform="scale(0.15625 0.15625)" d="M433.164 380.595C433.8 385.963 433.432 391.71 433.491 397.125L433.782 429.466C433.491 428.625 433.573 427.701 433.302 426.875C432.935 425.759 432.732 424.826 432.573 423.655L432.41 394.063L432.416 387.35C432.418 386.322 432.281 385.194 432.656 384.222L432.963 384.531L433.164 380.595Z"/>
	<path transform="scale(0.15625 0.15625)" d="M421.246 378.139L421.719 375.948C422.506 376.879 422.292 380.263 422.351 381.588L422.611 405.281L422.327 491.248L422.335 511.55C422.338 514.872 422.575 518.381 422.295 521.68L422.158 522.656C421.569 518.765 421.939 514.288 421.909 510.339L421.738 485.58L421.555 418.172L421.246 378.139Z"/>
	<path transform="scale(0.15625 0.15625)" d="M197.071 296.86C197.77 295.091 198.432 293.355 199.411 291.719L199.639 291.333C201.877 287.606 206.065 285.163 210.234 284.16C216.949 282.545 224.789 284.055 230.684 287.611C233.464 289.287 235.12 291.868 236.224 294.844L236.416 295.331C238.213 299.948 238.951 306.633 237.009 311.251C234.925 316.204 228.977 319.759 224.161 321.565L222.975 321.986C223.144 324.698 223.105 327.642 223.547 330.312C224.669 337.098 226.288 343.933 228.276 350.506C229.112 353.269 230.49 356.013 231.575 358.702C232.272 360.43 232.73 362.203 233.517 363.906C238.896 375.539 248.302 386.011 259.675 392.007C272.343 398.686 286.178 398.549 300 396.658C304.624 396.026 309.289 395.475 313.76 394.07C327.51 389.749 337.854 377.843 344.304 365.38C347.788 358.648 349.974 350.722 351.437 343.301L352.332 337.738C352.779 335.564 352.825 333.204 353.007 330.991C353.263 327.874 353.665 324.661 353.436 321.533C348.432 320.313 342.962 318.642 340.09 314.034C337.581 310.008 337.048 304.221 337.781 299.641C338.493 295.192 341.518 289.987 345.161 287.378C350.341 283.668 355.826 282.366 362.12 283.509C367.224 284.436 372.962 287.611 375.969 291.924L377.248 294.089C379.509 298.248 379.6 304.577 378.169 309.062C376.267 315.025 372.724 317.857 367.542 321.032L367.089 326.8C366.184 331.08 366.076 335.379 365.388 339.688C363.461 351.758 359.996 364.724 354.394 375.615C347.121 389.755 332.758 402.924 317.498 407.722C310.613 409.887 302.877 410.381 295.68 410.516C280.363 410.804 263.929 409.427 250.137 402.217C232.7 393.101 223.371 376.861 217.344 358.754C215.452 353.071 213.771 347.497 212.695 341.588C211.908 337.268 211.161 332.809 210.731 328.438C210.606 327.159 210.935 324.177 210.505 323.146C210.208 322.434 208.214 321.226 207.534 320.775C202.505 317.448 198.956 314.909 197.092 308.925C196.035 305.361 196.29 300.461 197.071 296.86ZM355.556 297.194C353.782 298.767 351.3 300.567 351.137 303.144C351.074 304.133 351.303 304.881 351.984 305.613C353.695 307.452 356.07 307.582 358.385 307.554C359.587 307.54 360.49 307.43 361.633 307.068L361.859 307.006C363.891 306.055 365.702 305.007 366.587 302.812C366.894 302.052 366.88 301.579 366.505 300.831C365.92 299.662 364.596 298.864 363.475 298.281L363.079 298.069C360.958 297.001 357.897 297.153 355.556 297.194ZM215.657 297.202C213.768 298.311 211.38 299.916 210.799 302.164C210.494 303.348 210.754 304.663 211.472 305.68C212.353 306.928 213.923 307.43 215.365 307.584C216.871 307.744 218.216 307.588 219.693 307.352C222.139 306.011 224.364 304.144 225.331 301.409L225.403 301.143C222.243 298.151 220.113 297.157 215.657 297.202ZM197.092 308.925L197.281 307.998C197.847 305.917 197.585 303.541 197.618 301.377C197.629 300.591 197.818 299.309 197.499 298.596C197.245 298.031 197.175 297.468 197.071 296.86C196.29 300.461 196.035 305.361 197.092 308.925Z"/>
	<path transform="scale(0.15625 0.15625)" d="M197.092 308.925C196.035 305.361 196.29 300.461 197.071 296.86C197.175 297.468 197.245 298.031 197.499 298.596C197.818 299.309 197.629 300.591 197.618 301.377C197.585 303.541 197.847 305.917 197.281 307.998L197.092 308.925Z"/>
	<path fill="#2A2A2B" transform="scale(0.15625 0.15625)" d="M367.089 326.8C365.129 326.214 363.855 327.132 362.15 327.977L362.517 322.975C363.346 321.977 366.258 321.299 367.542 321.032L367.089 326.8Z"/>
</svg>
