<?xml version="1.0" encoding="utf-8" ?>
<svg xmlns="http://www.w3.org/2000/svg" xmlns:xlink="http://www.w3.org/1999/xlink" width="100" height="100">
	<path transform="scale(0.15625 0.15625)" d="M334.765 550.751L334.488 550.717C325.242 550.968 315.725 551.096 306.499 550.405C177.23 540.73 80.2907 422.942 93.9169 295.446C104.51 196.331 179.049 115.088 276.25 94.5954C288.503 92.0121 300.879 90.0402 313.41 89.7597C417.892 83.7947 515.133 154.432 544.942 254.768C558.146 299.209 557.926 346.035 543.589 390.016C516.703 472.492 447.727 533.999 361.228 547.84L347.016 549.797C343.124 550.498 339.139 550.106 335.262 550.674L334.765 550.751ZM311.664 104.057C204.006 111.702 114.976 194.387 107.724 304.228C103.014 375.581 129.923 434.663 180.723 482.464C198.002 470.664 211.122 466.11 231.028 461.634C246.185 458.226 259.422 453.333 262.849 435.381C265.837 419.725 261.197 419.779 252.797 409.246C244.134 398.382 237.165 387.18 231.168 374.623L228.192 367.841C226.554 363.707 226.891 365.019 223.239 362.599C217.608 358.867 213.194 351.743 209.688 346.169C200.856 332.129 192.822 309.326 209.487 297.511L210.771 296.66C202.531 266.184 197.38 235.452 223.735 211.083C231.986 203.454 229.514 205.065 232.317 195.414C236.728 180.23 250.683 171.842 265.138 167.914L269.358 166.881C272.168 166.245 275.249 166.032 278.125 165.995L283.933 166.12C286.098 166.185 287.03 166.249 288.404 164.152C295.706 153.003 319.736 151.016 331.627 151.574C353.303 154.285 364.868 161.497 383.533 168.329C390.947 171.042 398.545 172.269 405.534 176.235C423.227 186.275 431.938 208.5 435.91 227.344L438.194 240.347C439.544 246.55 438.92 263.038 438.369 269.308C438.112 272.226 433.431 295.809 433.811 296.702C433.986 297.114 435.754 298.33 436.174 298.691C454.251 314.297 438.367 346.434 424.166 358.906C414.465 367.426 418.3 363.152 412.762 375.056C407.114 387.194 400.195 399.135 391.636 409.475C388.269 413.543 384.182 416.547 383.391 422.031L383.316 422.533C381.952 432.136 384.57 441.462 390.372 449.164C397.809 459.036 408.793 460.567 420.147 462.952C437.58 466.613 452.814 472.083 467.746 482.161L468.046 481.769C470.909 478.077 474.873 475.016 478.142 471.652C528.189 420.15 551.148 345.833 535.724 275.352C514.919 180.277 433.865 111.01 337.106 104.095C328.768 103.499 320.038 103.92 311.664 104.057ZM317.77 166.038C295.803 168.66 297.237 180.669 289.656 183.711C286.593 184.94 281.86 181.363 278.594 180.964C261.441 178.868 248.188 190.164 244.398 206.303C241.85 217.156 239.519 215.355 232.129 222.596C214.005 240.355 216.457 267.127 223.619 289.202C224.062 290.567 224.509 292.545 225.343 293.694C233.271 251.287 263.039 208.701 311.045 217.559C318.816 218.992 324.265 220.7 329.675 226.471C334.853 232.378 332.491 232.894 341.076 232.867C344.82 232.855 348.631 232.984 352.359 232.627C346.551 209.616 371.426 218.321 382.257 225.903C394.275 234.316 397.987 247.076 403.932 259.811C409.451 271.633 416.591 282.793 419.439 295.671C427.019 265.685 427.363 229.637 411.23 202.576C400.814 185.105 393.479 187.365 376.881 181.323C355.527 173.55 341.468 164.513 317.77 166.038ZM298.024 231.072C262.577 233.383 239.838 269.396 239.647 302.65L239.735 312.917C239.9 318.187 239.789 323.115 232.807 323.548C226.35 323.948 220.082 314.578 214.97 311.209C212.296 321.621 220.455 340.917 228.619 347.62C231.649 350.108 236.615 350.767 238.687 354.219C240.199 356.736 240.998 359.844 242.029 362.583C259.128 408.015 306.474 451.412 355.387 422.093L361.816 417.862C380.315 404.061 394.179 385.213 401.655 363.262C406.482 349.09 405.437 354.81 415.522 347.275C421.347 342.922 429.092 326.155 430.067 319.671C431.156 312.437 428.129 312.238 423.35 316.969C420.047 320.239 417.128 321.98 412.545 319.844C408.05 317.749 408.253 313.099 407.757 308.868C405.917 293.17 397.559 280.536 390.949 266.495C384.654 253.122 380.762 236.922 363.697 234.996L363.596 235.412C359.398 251.822 341.085 254.156 326.94 254.071C320.946 254.035 309.037 253.753 305.816 247.565C304.036 244.145 305.764 239.959 308.906 238.124L309.252 237.916C311.891 236.439 318.026 237.199 321.076 237.206L320.712 237.075C319.459 236.608 318.96 236.192 318.025 235.302C313.547 231.038 303.657 230.767 298.024 231.072ZM368.322 431.639C337.423 451.196 308.32 450.565 277.733 432.462C275.717 446.482 270.197 454.316 261.437 464.583L276.058 472.453C303.262 484.985 333.907 486.623 362.088 476.164C365.586 474.866 383.512 467.571 385.671 464.904C376.266 456.722 369.281 444.182 368.322 431.639ZM248.003 472.909C231.48 477.024 205.843 480.33 192.551 491.84C221.92 516.18 260.632 530.419 298.195 534.977L308.523 536.227C341.347 538.659 376.958 531.986 407.265 519.845C422.189 513.566 442.86 502.475 455.611 491.881C440.134 480.011 418.425 478.041 400.074 473.683C397.482 474.725 395.033 476.322 392.6 477.69L381.899 483.396C372.25 488.232 362.026 492.117 351.476 494.45L337.815 496.849C316.762 500.741 285.143 493.247 266.628 484.059C260.071 480.805 254.26 476.63 248.003 472.909Z"/>
</svg>
